<?xml version="1.0" encoding="iso-8859-1"?>
<!-- Generator: Adobe Illustrator 17.1.0, SVG Export Plug-In . SVG Version: 6.00 Build 0)  -->
<!DOCTYPE svg PUBLIC "-//W3C//DTD SVG 1.1//EN" "http://www.w3.org/Graphics/SVG/1.1/DTD/svg11.dtd">
<svg version="1.1" id="Capa_1" xmlns="http://www.w3.org/2000/svg" xmlns:xlink="http://www.w3.org/1999/xlink" x="0px" y="0px"
	 viewBox="0 0 347 347" style="enable-background:new 0 0 347 347;" xml:space="preserve">
<path d="M322,0H25C11.215,0,0,11.215,0,25v297c0,13.785,11.215,25,25,25h297c13.785,0,25-11.215,25-25V25
	C347,11.215,335.785,0,322,0z M60,113.464C60,88.395,80.105,68,104.818,68H219V55.771c0-7.156,4.614-10.415,8.901-10.415
	c2.018,0,4.083,0.649,6.138,1.93l43.063,26.901c3.514,2.188,5.533,5.484,5.533,9.037c0,3.529-1.997,6.797-5.478,8.965
	l-43.115,26.896c-2.058,1.282-4.124,1.932-6.141,1.932c-4.288,0-8.902-3.26-8.902-10.415V98H104.818
	C96.786,98,90,105.082,90,113.464V183c0,8.284-6.716,15-15,15s-15-6.716-15-15V113.464z M286,232.536
	C286,257.605,265.811,278,240.996,278H127v12.229c0,7.156-4.652,10.415-8.974,10.415c-2.031,0-4.104-0.649-6.159-1.93L68.76,271.814
	c-3.509-2.187-5.523-5.476-5.523-9.024c0-3.533,2-6.807,5.489-8.979l43.139-26.897c2.058-1.281,4.129-1.931,6.161-1.931
	c4.322,0,8.974,3.26,8.974,10.415V248h113.996c8.133,0,15.004-7.082,15.004-15.464V163c0-8.284,6.716-15,15-15s15,6.716,15,15
	V232.536z"/>
<g>
</g>
<g>
</g>
<g>
</g>
<g>
</g>
<g>
</g>
<g>
</g>
<g>
</g>
<g>
</g>
<g>
</g>
<g>
</g>
<g>
</g>
<g>
</g>
<g>
</g>
<g>
</g>
<g>
</g>
</svg>
